<svg xmlns="http://www.w3.org/2000/svg" xmlns:xlink="http://www.w3.org/1999/xlink" width="500" zoomAndPan="magnify" viewBox="0 0 375 374.999991" height="500" preserveAspectRatio="xMidYMid meet" version="1.0"><defs><g/></defs><g fill="#ffffff" fill-opacity="1"><g transform="translate(48.179712, 199.779318)"><g><path d="M 33 -46.859375 C 34.332031 -46.859375 35.515625 -46.695312 36.546875 -46.375 C 37.585938 -46.0625 38.109375 -45.878906 38.109375 -45.828125 L 38.109375 -31.359375 L 32.578125 -31.359375 C 28.992188 -31.359375 26.40625 -30.429688 24.8125 -28.578125 C 23.226562 -26.734375 22.4375 -23.992188 22.4375 -20.359375 L 22.4375 0 L 5.203125 0 L 5.203125 -45.734375 L 19.3125 -45.734375 L 20.4375 -38.8125 C 21.476562 -41.46875 23.125 -43.472656 25.375 -44.828125 C 27.632812 -46.179688 30.175781 -46.859375 33 -46.859375 Z M 33 -46.859375 "/></g></g></g><g fill="#ffffff" fill-opacity="1"><g transform="translate(81.698582, 199.779318)"><g><path d="M 28.84375 -46.78125 C 36.875 -46.78125 43.179688 -44.742188 47.765625 -40.671875 C 52.359375 -36.597656 54.65625 -30.664062 54.65625 -22.875 C 54.65625 -15.070312 52.359375 -9.132812 47.765625 -5.0625 C 43.179688 -0.988281 36.875 1.046875 28.84375 1.046875 C 20.820312 1.046875 14.53125 -0.972656 9.96875 -5.015625 C 5.40625 -9.066406 3.125 -15.019531 3.125 -22.875 C 3.125 -30.726562 5.40625 -36.675781 9.96875 -40.71875 C 14.53125 -44.757812 20.820312 -46.78125 28.84375 -46.78125 Z M 28.84375 -35.078125 C 23.1875 -35.078125 20.359375 -31.816406 20.359375 -25.296875 L 20.359375 -20.359375 C 20.359375 -13.890625 23.1875 -10.65625 28.84375 -10.65625 C 34.5625 -10.65625 37.421875 -13.890625 37.421875 -20.359375 L 37.421875 -25.296875 C 37.421875 -31.816406 34.5625 -35.078125 28.84375 -35.078125 Z M 28.84375 -35.078125 "/></g></g></g><g fill="#ffffff" fill-opacity="1"><g transform="translate(134.532231, 199.779318)"><g><path d="M 28.84375 -46.78125 C 36.875 -46.78125 43.179688 -44.742188 47.765625 -40.671875 C 52.359375 -36.597656 54.65625 -30.664062 54.65625 -22.875 C 54.65625 -15.070312 52.359375 -9.132812 47.765625 -5.0625 C 43.179688 -0.988281 36.875 1.046875 28.84375 1.046875 C 20.820312 1.046875 14.53125 -0.972656 9.96875 -5.015625 C 5.40625 -9.066406 3.125 -15.019531 3.125 -22.875 C 3.125 -30.726562 5.40625 -36.675781 9.96875 -40.71875 C 14.53125 -44.757812 20.820312 -46.78125 28.84375 -46.78125 Z M 28.84375 -35.078125 C 23.1875 -35.078125 20.359375 -31.816406 20.359375 -25.296875 L 20.359375 -20.359375 C 20.359375 -13.890625 23.1875 -10.65625 28.84375 -10.65625 C 34.5625 -10.65625 37.421875 -13.890625 37.421875 -20.359375 L 37.421875 -25.296875 C 37.421875 -31.816406 34.5625 -35.078125 28.84375 -35.078125 Z M 28.84375 -35.078125 "/></g></g></g><g fill="#ffffff" fill-opacity="1"><g transform="translate(187.36588, 199.779318)"><g><path d="M 65.921875 -46.78125 C 71.117188 -46.78125 75.015625 -45.289062 77.609375 -42.3125 C 80.210938 -39.34375 81.515625 -35.113281 81.515625 -29.625 L 81.515625 0 L 64.28125 0 L 64.28125 -27.546875 C 64.28125 -29.503906 63.800781 -31.078125 62.84375 -32.265625 C 61.894531 -33.453125 60.550781 -34.046875 58.8125 -34.046875 C 56.789062 -34.046875 55.144531 -33.351562 53.875 -31.96875 C 52.601562 -30.582031 51.96875 -28.878906 51.96875 -26.859375 L 51.96875 0 L 34.734375 0 L 34.734375 -27.546875 C 34.734375 -29.503906 34.253906 -31.078125 33.296875 -32.265625 C 32.347656 -33.453125 31.007812 -34.046875 29.28125 -34.046875 C 27.257812 -34.046875 25.613281 -33.351562 24.34375 -31.96875 C 23.070312 -30.582031 22.4375 -28.878906 22.4375 -26.859375 L 22.4375 0 L 5.203125 0 L 5.203125 -45.734375 L 19.3125 -45.734375 L 20.4375 -38.890625 C 22.175781 -41.316406 24.472656 -43.238281 27.328125 -44.65625 C 30.191406 -46.070312 33.207031 -46.78125 36.375 -46.78125 C 43.25 -46.78125 47.875 -44.148438 50.25 -38.890625 C 52.03125 -41.316406 54.320312 -43.238281 57.125 -44.65625 C 59.925781 -46.070312 62.859375 -46.78125 65.921875 -46.78125 Z M 65.921875 -46.78125 "/></g></g></g><g fill="#ffffff" fill-opacity="1"><g transform="translate(269.041786, 199.779318)"><g><path d="M 28.84375 -46.78125 C 37.21875 -46.78125 43.613281 -44.816406 48.03125 -40.890625 C 52.445312 -36.960938 54.65625 -30.957031 54.65625 -22.875 L 54.65625 -19.921875 L 20.359375 -19.921875 C 20.359375 -16.628906 21.09375 -14.144531 22.5625 -12.46875 C 24.039062 -10.800781 26.367188 -9.96875 29.546875 -9.96875 C 32.429688 -9.96875 34.550781 -10.570312 35.90625 -11.78125 C 37.257812 -12.988281 37.9375 -14.601562 37.9375 -16.625 L 54.65625 -16.625 C 54.65625 -11.082031 52.546875 -6.75 48.328125 -3.625 C 44.117188 -0.507812 37.972656 1.046875 29.890625 1.046875 C 21.398438 1.046875 14.816406 -0.929688 10.140625 -4.890625 C 5.460938 -8.847656 3.125 -14.84375 3.125 -22.875 C 3.125 -30.726562 5.40625 -36.675781 9.96875 -40.71875 C 14.53125 -44.757812 20.820312 -46.78125 28.84375 -46.78125 Z M 29.546875 -35.78125 C 24.109375 -35.78125 21.070312 -33.207031 20.4375 -28.0625 L 37.25 -28.0625 C 37.25 -30.4375 36.566406 -32.316406 35.203125 -33.703125 C 33.847656 -35.085938 31.960938 -35.78125 29.546875 -35.78125 Z M 29.546875 -35.78125 "/></g></g></g></svg>